<svg xmlns="http://www.w3.org/2000/svg" xmlns:xlink="http://www.w3.org/1999/xlink" width="100" zoomAndPan="magnify" viewBox="0 0 37.5 37.499999" height="100" preserveAspectRatio="xMidYMid meet" version="1.0"><defs><clipPath id="98ebebd3f7"><path d="M 0.855469 0.855469 L 36.152344 0.855469 L 36.152344 36.152344 L 0.855469 36.152344 Z M 0.855469 0.855469 " clip-rule="nonzero"/></clipPath><clipPath id="6381c5bc7b"><path d="M 18.503906 0.855469 C 8.757812 0.855469 0.855469 8.757812 0.855469 18.503906 C 0.855469 28.25 8.757812 36.152344 18.503906 36.152344 C 28.25 36.152344 36.152344 28.25 36.152344 18.503906 C 36.152344 8.757812 28.25 0.855469 18.503906 0.855469 Z M 18.503906 0.855469 " clip-rule="nonzero"/></clipPath><clipPath id="dc2b746b3f"><path d="M 1.214844 1.238281 L 31 1.238281 L 31 33 L 1.214844 33 Z M 1.214844 1.238281 " clip-rule="nonzero"/></clipPath><clipPath id="ac0c13db55"><path d="M 3 10 L 36 10 L 36 36.023438 L 3 36.023438 Z M 3 10 " clip-rule="nonzero"/></clipPath><clipPath id="155dc88f6e"><path d="M 13 7.863281 L 23 7.863281 L 23 13 L 13 13 Z M 13 7.863281 " clip-rule="nonzero"/></clipPath><clipPath id="face82fe63"><path d="M 10.382812 12 L 24 12 L 24 29.324219 L 10.382812 29.324219 Z M 10.382812 12 " clip-rule="nonzero"/></clipPath><clipPath id="1fcd071eee"><path d="M 10.382812 14 L 18 14 L 18 29.324219 L 10.382812 29.324219 Z M 10.382812 14 " clip-rule="nonzero"/></clipPath></defs><g clip-path="url(#98ebebd3f7)"><g clip-path="url(#6381c5bc7b)"><path fill="#ffffff" d="M 0.855469 0.855469 L 36.152344 0.855469 L 36.152344 36.152344 L 0.855469 36.152344 Z M 0.855469 0.855469 " fill-opacity="1" fill-rule="nonzero"/></g></g><g clip-path="url(#dc2b746b3f)"><path fill="#17cfcc" d="M 2.320312 19.664062 C 2.320312 10.019531 10.132812 2.199219 19.769531 2.199219 C 23.875 2.199219 27.652344 3.617188 30.628906 5.992188 C 27.507812 3.046875 23.296875 1.238281 18.667969 1.238281 C 9.027344 1.238281 1.214844 9.058594 1.214844 18.707031 C 1.214844 24.246094 3.789062 29.179688 7.804688 32.378906 C 4.425781 29.195312 2.320312 24.675781 2.320312 19.664062 Z M 2.320312 19.664062 " fill-opacity="1" fill-rule="evenodd"/></g><path fill="#f5e100" d="M 27.074219 4.964844 C 31.9375 7.441406 35.269531 12.5 35.269531 18.335938 C 35.269531 26.621094 28.5625 33.335938 20.285156 33.335938 C 12.011719 33.335938 5.300781 26.621094 5.300781 18.335938 C 5.300781 17.324219 5.402344 16.332031 5.59375 15.375 C 5.5 16.042969 5.449219 16.730469 5.449219 17.425781 C 5.449219 25.386719 11.894531 31.835938 19.84375 31.835938 C 27.792969 31.835938 34.238281 25.386719 34.238281 17.425781 C 34.238281 12.105469 31.359375 7.460938 27.074219 4.964844 Z M 27.074219 4.964844 " fill-opacity="1" fill-rule="evenodd"/><g clip-path="url(#ac0c13db55)"><path fill="#72d669" d="M 20.285156 34.40625 C 11.421875 34.40625 4.234375 27.210938 4.234375 18.335938 C 4.234375 15.34375 5.050781 12.539062 6.476562 10.140625 C 4.554688 12.820312 3.425781 16.113281 3.425781 19.664062 C 3.425781 28.703125 10.742188 36.027344 19.769531 36.027344 C 28.132812 36.027344 35.027344 29.742188 36 21.636719 C 34.480469 28.925781 28.023438 34.40625 20.285156 34.40625 Z M 20.285156 34.40625 " fill-opacity="1" fill-rule="evenodd"/></g><g clip-path="url(#155dc88f6e)"><path fill="#004276" d="M 17.75 10.164062 C 18.515625 10.042969 19.949219 10.039062 20.410156 10.097656 L 20.648438 11.574219 C 20 11.46875 19.105469 11.480469 18.140625 11.636719 C 17.171875 11.800781 16.320312 12.078125 15.742188 12.390625 L 15.480469 10.773438 L 13.066406 10.339844 L 17.523438 7.863281 L 22.53125 8.765625 L 20.457031 9.917969 C 19.277344 9.761719 17.75 10.164062 17.75 10.164062 Z M 17.75 10.164062 " fill-opacity="1" fill-rule="nonzero"/></g><g clip-path="url(#face82fe63)"><path fill="#004276" d="M 17.835938 29.324219 C 17.835938 29.324219 17.222656 16.710938 10.902344 14.011719 C 10.902344 14.011719 14.042969 13.023438 19.5625 20.015625 C 21.34375 18.574219 22.363281 15.960938 22.769531 12.394531 C 22.777344 12.394531 26.667969 22.996094 17.835938 29.324219 Z M 17.835938 29.324219 " fill-opacity="1" fill-rule="nonzero"/></g><path fill="#004276" d="M 21.054688 14.402344 C 21.054688 15.742188 19.980469 16.832031 18.652344 16.832031 C 17.320312 16.832031 16.25 15.75 16.25 14.402344 C 16.25 13.058594 17.320312 11.972656 18.652344 11.972656 C 19.980469 11.972656 21.054688 13.066406 21.054688 14.402344 Z M 21.054688 14.402344 " fill-opacity="1" fill-rule="nonzero"/><g clip-path="url(#1fcd071eee)"><path fill="#004276" d="M 17.269531 29.324219 L 15.324219 24.808594 C 15.164062 27.25 14.054688 29.324219 14.054688 29.324219 C 15.109375 18.507812 10.382812 14.402344 10.382812 14.402344 C 16.667969 17.769531 17.269531 29.324219 17.269531 29.324219 Z M 17.269531 29.324219 " fill-opacity="1" fill-rule="nonzero"/></g></svg>