<svg xmlns="http://www.w3.org/2000/svg" xmlns:xlink="http://www.w3.org/1999/xlink" width="200" zoomAndPan="magnify" viewBox="0 0 150 44.999999" height="60" preserveAspectRatio="xMidYMid meet" version="1.0"><defs><g/><clipPath id="8b159cb8d3"><path d="M 9 0.378906 L 29 0.378906 L 29 10 L 9 10 Z M 9 0.378906 " clip-rule="nonzero"/></clipPath><clipPath id="25d8b88e6e"><path d="M 4 9 L 31 9 L 31 44.628906 L 4 44.628906 Z M 4 9 " clip-rule="nonzero"/></clipPath><clipPath id="523f07a187"><path d="M 3.480469 13 L 18 13 L 18 44.628906 L 3.480469 44.628906 Z M 3.480469 13 " clip-rule="nonzero"/></clipPath><clipPath id="83a1a99e38"><path d="M 57.617188 36.8125 L 134 36.8125 L 134 44.3125 L 57.617188 44.3125 Z M 57.617188 36.8125 " clip-rule="nonzero"/></clipPath></defs><g clip-path="url(#8b159cb8d3)"><path fill="#004276" d="M 18.75 5.132812 C 20.332031 4.882812 23.308594 4.871094 24.261719 4.996094 L 24.753906 8.039062 C 23.410156 7.816406 21.554688 7.839844 19.554688 8.164062 C 17.554688 8.5 15.785156 9.070312 14.589844 9.714844 L 14.042969 6.386719 L 9.042969 5.492188 L 18.28125 0.386719 L 28.660156 2.25 L 24.359375 4.621094 C 21.914062 4.300781 18.75 5.132812 18.75 5.132812 Z M 18.75 5.132812 " fill-opacity="1" fill-rule="nonzero"/></g><g clip-path="url(#25d8b88e6e)"><path fill="#004276" d="M 18.925781 44.621094 C 18.925781 44.621094 17.652344 18.625 4.558594 13.058594 C 4.558594 13.058594 11.066406 11.019531 22.507812 25.433594 C 26.199219 22.464844 28.3125 17.074219 29.152344 9.730469 C 29.164062 9.730469 37.230469 31.574219 18.925781 44.621094 Z M 18.925781 44.621094 " fill-opacity="1" fill-rule="nonzero"/></g><path fill="#004276" d="M 25.59375 13.867188 C 25.59375 16.625 23.371094 18.875 20.617188 18.875 C 17.863281 18.875 15.636719 16.636719 15.636719 13.867188 C 15.636719 11.09375 17.863281 8.859375 20.617188 8.859375 C 23.371094 8.859375 25.59375 11.109375 25.59375 13.867188 Z M 25.59375 13.867188 " fill-opacity="1" fill-rule="nonzero"/><g clip-path="url(#523f07a187)"><path fill="#004276" d="M 17.75 44.621094 L 13.722656 35.3125 C 13.390625 40.34375 11.09375 44.621094 11.09375 44.621094 C 13.277344 22.328125 3.480469 13.867188 3.480469 13.867188 C 16.503906 20.800781 17.75 44.621094 17.75 44.621094 Z M 17.75 44.621094 " fill-opacity="1" fill-rule="nonzero"/></g><g clip-path="url(#83a1a99e38)"><path fill="#004276" d="M 59 43.609375 C 59.265625 43.609375 59.507812 43.617188 59.75 43.609375 C 60.421875 43.589844 61.09375 43.578125 61.761719 43.53125 C 62.28125 43.5 62.800781 43.417969 63.324219 43.363281 C 63.78125 43.316406 64.242188 43.28125 64.703125 43.226562 C 65.109375 43.179688 65.515625 43.113281 65.921875 43.0625 C 66.332031 43.011719 66.738281 42.96875 67.148438 42.917969 C 67.503906 42.875 67.859375 42.824219 68.214844 42.777344 C 68.601562 42.722656 68.988281 42.667969 69.375 42.613281 C 69.742188 42.558594 70.105469 42.507812 70.472656 42.457031 C 70.835938 42.40625 71.203125 42.351562 71.570312 42.300781 C 71.933594 42.246094 72.300781 42.191406 72.664062 42.136719 C 73.011719 42.085938 73.355469 42.039062 73.703125 41.992188 C 74.058594 41.9375 74.410156 41.882812 74.765625 41.832031 C 75.113281 41.777344 75.457031 41.730469 75.800781 41.679688 C 76.28125 41.609375 76.757812 41.535156 77.234375 41.464844 C 77.589844 41.410156 77.945312 41.359375 78.296875 41.304688 C 78.765625 41.238281 79.234375 41.167969 79.699219 41.097656 C 80.066406 41.042969 80.429688 40.988281 80.796875 40.9375 C 81.132812 40.886719 81.464844 40.839844 81.800781 40.789062 C 82.308594 40.714844 82.816406 40.636719 83.324219 40.5625 C 83.789062 40.492188 84.257812 40.421875 84.722656 40.355469 C 85.089844 40.300781 85.453125 40.242188 85.820312 40.191406 C 86.164062 40.144531 86.511719 40.101562 86.859375 40.050781 C 87.253906 39.996094 87.648438 39.9375 88.046875 39.878906 C 88.398438 39.824219 88.753906 39.769531 89.109375 39.714844 C 89.457031 39.664062 89.800781 39.621094 90.148438 39.570312 C 90.695312 39.492188 91.242188 39.414062 91.792969 39.339844 C 92.148438 39.289062 92.503906 39.246094 92.859375 39.199219 C 93.246094 39.144531 93.632812 39.085938 94.019531 39.03125 C 94.230469 39 94.445312 38.980469 94.660156 38.953125 C 95.066406 38.898438 95.472656 38.835938 95.878906 38.785156 C 96.277344 38.734375 96.675781 38.6875 97.074219 38.640625 C 97.480469 38.59375 97.890625 38.546875 98.296875 38.496094 C 98.5625 38.464844 98.828125 38.425781 99.089844 38.390625 C 99.527344 38.335938 99.964844 38.28125 100.40625 38.226562 C 100.628906 38.199219 100.851562 38.171875 101.078125 38.148438 C 101.519531 38.105469 101.957031 38.066406 102.398438 38.015625 C 102.84375 37.964844 103.292969 37.902344 103.742188 37.847656 C 103.976562 37.820312 104.210938 37.800781 104.445312 37.777344 C 105.027344 37.71875 105.609375 37.652344 106.195312 37.59375 C 106.519531 37.5625 106.851562 37.550781 107.179688 37.519531 C 107.496094 37.492188 107.808594 37.449219 108.125 37.414062 C 108.394531 37.386719 108.660156 37.367188 108.925781 37.347656 C 109.296875 37.320312 109.664062 37.300781 110.035156 37.273438 C 110.414062 37.242188 110.792969 37.203125 111.171875 37.164062 C 111.199219 37.164062 111.230469 37.160156 111.261719 37.160156 C 111.765625 37.136719 112.273438 37.117188 112.777344 37.085938 C 113.214844 37.058594 113.65625 37.015625 114.097656 36.980469 C 114.128906 36.976562 114.160156 36.976562 114.191406 36.972656 C 114.933594 36.949219 115.675781 36.941406 116.417969 36.898438 C 117.890625 36.816406 119.367188 36.84375 120.84375 36.839844 C 121.21875 36.839844 121.589844 36.839844 121.960938 36.851562 C 122.476562 36.867188 122.992188 36.886719 123.507812 36.914062 C 124.039062 36.945312 124.574219 36.984375 125.105469 37.035156 C 125.554688 37.078125 126 37.160156 126.449219 37.207031 C 127.472656 37.3125 128.476562 37.515625 129.46875 37.78125 C 130.476562 38.050781 131.457031 38.398438 132.324219 38.996094 C 132.683594 39.246094 133.011719 39.527344 133.261719 39.890625 C 133.6875 40.507812 133.804688 41.175781 133.53125 41.882812 C 133.34375 42.378906 133.046875 42.804688 132.632812 43.15625 C 132.269531 43.464844 131.894531 43.753906 131.464844 43.964844 C 130.828125 44.277344 130.15625 44.484375 129.441406 44.566406 C 129.046875 44.613281 128.683594 44.546875 128.3125 44.480469 C 128.179688 44.453125 128.046875 44.371094 127.925781 44.296875 C 127.832031 44.238281 127.800781 44.132812 127.847656 44.023438 C 127.902344 43.910156 128.003906 43.902344 128.113281 43.914062 C 128.132812 43.917969 128.15625 43.921875 128.171875 43.933594 C 128.769531 44.222656 129.375 44.121094 129.984375 43.996094 C 130.789062 43.832031 131.5 43.46875 132.136719 42.964844 C 132.546875 42.644531 132.882812 42.25 133.074219 41.753906 C 133.335938 41.078125 133.171875 40.488281 132.710938 39.957031 C 132.226562 39.410156 131.597656 39.078125 130.945312 38.789062 C 130.171875 38.445312 129.355469 38.234375 128.53125 38.054688 C 127.960938 37.933594 127.375 37.875 126.800781 37.78125 C 126.230469 37.691406 125.660156 37.636719 125.085938 37.589844 C 124.46875 37.539062 123.855469 37.5 123.238281 37.464844 C 121.253906 37.351562 119.273438 37.429688 117.289062 37.421875 C 116.796875 37.421875 116.300781 37.460938 115.808594 37.484375 C 115.46875 37.5 115.128906 37.519531 114.789062 37.542969 C 114.328125 37.574219 113.867188 37.613281 113.40625 37.652344 C 113.375 37.652344 113.34375 37.65625 113.3125 37.65625 C 112.839844 37.679688 112.367188 37.699219 111.894531 37.730469 C 111.578125 37.753906 111.261719 37.800781 110.945312 37.835938 C 110.894531 37.839844 110.84375 37.839844 110.789062 37.847656 C 110.332031 37.886719 109.871094 37.925781 109.410156 37.964844 C 109.070312 37.992188 108.730469 38.007812 108.394531 38.039062 C 108.117188 38.066406 107.84375 38.109375 107.566406 38.140625 C 107.292969 38.167969 107.015625 38.191406 106.738281 38.21875 C 106.167969 38.28125 105.597656 38.34375 105.023438 38.402344 C 104.574219 38.449219 104.125 38.484375 103.675781 38.535156 C 103.246094 38.585938 102.820312 38.652344 102.394531 38.703125 C 102.160156 38.734375 101.921875 38.753906 101.6875 38.78125 C 101.25 38.835938 100.8125 38.894531 100.375 38.949219 C 99.988281 38.996094 99.601562 39.042969 99.214844 39.09375 C 98.796875 39.144531 98.378906 39.199219 97.960938 39.253906 C 97.597656 39.304688 97.230469 39.351562 96.863281 39.402344 C 96.476562 39.453125 96.09375 39.515625 95.707031 39.570312 C 95.351562 39.617188 94.992188 39.664062 94.636719 39.710938 C 94.28125 39.757812 93.925781 39.800781 93.570312 39.847656 C 93.152344 39.90625 92.734375 39.960938 92.320312 40.023438 C 91.84375 40.09375 91.367188 40.171875 90.890625 40.246094 C 90.546875 40.296875 90.199219 40.34375 89.855469 40.394531 C 89.507812 40.441406 89.164062 40.492188 88.816406 40.542969 C 88.453125 40.59375 88.085938 40.648438 87.722656 40.707031 C 87.246094 40.78125 86.769531 40.859375 86.292969 40.933594 C 85.816406 41.003906 85.339844 41.066406 84.863281 41.140625 C 84.265625 41.234375 83.667969 41.335938 83.070312 41.429688 C 82.59375 41.5 82.117188 41.566406 81.636719 41.636719 C 81.210938 41.699219 80.785156 41.765625 80.359375 41.832031 C 79.894531 41.910156 79.429688 41.992188 78.964844 42.066406 C 78.335938 42.167969 77.707031 42.269531 77.078125 42.363281 C 76.460938 42.457031 75.839844 42.535156 75.21875 42.632812 C 74.5 42.742188 73.785156 42.871094 73.066406 42.980469 C 72.578125 43.058594 72.089844 43.117188 71.601562 43.1875 C 71.09375 43.261719 70.585938 43.347656 70.078125 43.421875 C 69.59375 43.492188 69.101562 43.550781 68.617188 43.621094 C 68.085938 43.699219 67.5625 43.78125 67.03125 43.855469 C 66.675781 43.90625 66.320312 43.945312 65.964844 43.992188 C 65.535156 44.046875 65.109375 44.105469 64.679688 44.160156 C 64.46875 44.1875 64.253906 44.210938 64.039062 44.234375 C 63.464844 44.296875 62.894531 44.363281 62.320312 44.414062 C 61.921875 44.453125 61.515625 44.441406 61.121094 44.496094 C 60.460938 44.582031 59.800781 44.550781 59.140625 44.542969 C 58.847656 44.539062 58.550781 44.476562 58.261719 44.410156 C 58.128906 44.378906 57.992188 44.292969 57.890625 44.195312 C 57.617188 43.941406 57.621094 43.558594 57.882812 43.25 C 58.058594 43.042969 58.273438 42.886719 58.511719 42.753906 C 59.132812 42.410156 59.785156 42.128906 60.445312 41.863281 C 61.679688 41.371094 62.941406 40.960938 64.199219 40.542969 C 66.101562 39.914062 68.023438 39.339844 69.957031 38.816406 C 71.285156 38.453125 72.628906 38.15625 73.980469 37.890625 C 74.875 37.710938 75.769531 37.523438 76.667969 37.355469 C 77.300781 37.234375 77.941406 37.132812 78.578125 37.035156 C 78.871094 36.992188 79.15625 37.015625 79.367188 37.277344 C 79.621094 37.585938 79.550781 38.058594 79.21875 38.277344 C 79.035156 38.398438 78.828125 38.417969 78.628906 38.453125 C 77.839844 38.59375 77.046875 38.703125 76.261719 38.851562 C 75.390625 39.011719 74.527344 39.191406 73.664062 39.375 C 72.269531 39.671875 70.871094 39.960938 69.480469 40.28125 C 68.25 40.5625 67.03125 40.886719 65.804688 41.1875 C 64.523438 41.5 63.265625 41.871094 62.023438 42.308594 C 61.089844 42.636719 60.160156 42.96875 59.273438 43.414062 C 59.199219 43.449219 59.128906 43.488281 59.054688 43.53125 C 59.039062 43.539062 59.03125 43.5625 59 43.609375 Z M 59 43.609375 " fill-opacity="1" fill-rule="nonzero"/></g><g fill="#004276" fill-opacity="1"><g transform="translate(50.313473, 36.680562)"><g><path d="M 0 0 L 0 -0.1875 C 0.4375 -0.164062 0.757812 -0.335938 0.96875 -0.703125 C 1.1875 -1.078125 1.296875 -1.796875 1.296875 -2.859375 L 1.296875 -11 C 1.296875 -12.082031 1.1875 -12.804688 0.96875 -13.171875 C 0.757812 -13.546875 0.4375 -13.722656 0 -13.703125 L 0 -13.890625 L 5.28125 -13.890625 C 6.09375 -13.890625 6.894531 -13.804688 7.6875 -13.640625 C 8.476562 -13.472656 9.191406 -13.15625 9.828125 -12.6875 C 10.472656 -12.226562 10.984375 -11.539062 11.359375 -10.625 C 11.742188 -9.707031 11.9375 -8.503906 11.9375 -7.015625 C 11.9375 -5.535156 11.742188 -4.332031 11.359375 -3.40625 C 10.984375 -2.488281 10.476562 -1.78125 9.84375 -1.28125 C 9.207031 -0.789062 8.492188 -0.453125 7.703125 -0.265625 C 6.910156 -0.0859375 6.101562 0 5.28125 0 Z M 3.234375 -13.515625 L 3.234375 -0.359375 L 5.84375 -0.359375 C 6.78125 -0.359375 7.554688 -0.644531 8.171875 -1.21875 C 8.785156 -1.800781 9.242188 -2.59375 9.546875 -3.59375 C 9.847656 -4.601562 10 -5.742188 10 -7.015625 C 10 -8.304688 9.84375 -9.4375 9.53125 -10.40625 C 9.226562 -11.382812 8.765625 -12.144531 8.140625 -12.6875 C 7.523438 -13.238281 6.757812 -13.515625 5.84375 -13.515625 Z M 3.234375 -13.515625 "/></g></g></g><g fill="#004276" fill-opacity="1"><g transform="translate(62.877197, 36.680562)"><g><path d="M 12.03125 -13.890625 L 12.03125 -13.703125 C 11.601562 -13.722656 11.28125 -13.546875 11.0625 -13.171875 C 10.84375 -12.804688 10.734375 -12.082031 10.734375 -11 L 10.734375 -6.015625 C 10.734375 -5.046875 10.671875 -4.222656 10.546875 -3.546875 C 10.335938 -2.359375 9.835938 -1.46875 9.046875 -0.875 C 8.265625 -0.289062 7.269531 0 6.0625 0 C 4.832031 0 3.800781 -0.28125 2.96875 -0.84375 C 2.132812 -1.414062 1.625 -2.359375 1.4375 -3.671875 C 1.351562 -4.222656 1.304688 -4.847656 1.296875 -5.546875 C 1.296875 -6.253906 1.296875 -6.878906 1.296875 -7.421875 L 1.296875 -11 C 1.296875 -12.082031 1.1875 -12.804688 0.96875 -13.171875 C 0.757812 -13.546875 0.4375 -13.722656 0 -13.703125 L 0 -13.890625 L 4.53125 -13.890625 L 4.53125 -13.703125 C 4.09375 -13.722656 3.765625 -13.546875 3.546875 -13.171875 C 3.335938 -12.804688 3.234375 -12.082031 3.234375 -11 L 3.234375 -7.046875 C 3.234375 -6.503906 3.238281 -5.972656 3.25 -5.453125 C 3.257812 -4.929688 3.289062 -4.394531 3.34375 -3.84375 C 3.457031 -2.945312 3.765625 -2.203125 4.265625 -1.609375 C 4.773438 -1.023438 5.523438 -0.734375 6.515625 -0.734375 C 7.316406 -0.742188 8.023438 -0.953125 8.640625 -1.359375 C 9.265625 -1.765625 9.707031 -2.347656 9.96875 -3.109375 C 10.125 -3.535156 10.226562 -4.003906 10.28125 -4.515625 C 10.34375 -5.035156 10.375 -5.566406 10.375 -6.109375 L 10.375 -11 C 10.375 -12.082031 10.265625 -12.804688 10.046875 -13.171875 C 9.828125 -13.546875 9.503906 -13.722656 9.078125 -13.703125 L 9.078125 -13.890625 Z M 12.03125 -13.890625 "/></g></g></g><g fill="#004276" fill-opacity="1"><g transform="translate(75.542407, 36.680562)"><g><path d="M 12.171875 -12.015625 L 11.421875 -10.046875 C 10.722656 -11.097656 9.988281 -11.890625 9.21875 -12.421875 C 8.457031 -12.953125 7.691406 -13.265625 6.921875 -13.359375 C 6.160156 -13.453125 5.421875 -13.367188 4.703125 -13.109375 C 3.929688 -12.828125 3.320312 -12.390625 2.875 -11.796875 C 2.4375 -11.203125 2.128906 -10.523438 1.953125 -9.765625 C 1.785156 -9.003906 1.734375 -8.226562 1.796875 -7.4375 C 1.859375 -6.644531 2.007812 -5.910156 2.25 -5.234375 C 2.601562 -4.265625 3.148438 -3.4375 3.890625 -2.75 C 4.640625 -2.0625 5.5 -1.578125 6.46875 -1.296875 C 7.4375 -1.015625 8.425781 -0.992188 9.4375 -1.234375 C 10.03125 -1.390625 10.585938 -1.632812 11.109375 -1.96875 C 11.628906 -2.300781 12.082031 -2.738281 12.46875 -3.28125 L 12.609375 -3.1875 C 12.015625 -2.113281 11.210938 -1.3125 10.203125 -0.78125 C 9.191406 -0.257812 8.125 0 7 0 C 6.007812 0 5.085938 -0.171875 4.234375 -0.515625 C 3.390625 -0.859375 2.648438 -1.34375 2.015625 -1.96875 C 1.378906 -2.601562 0.882812 -3.34375 0.53125 -4.1875 C 0.175781 -5.03125 0 -5.945312 0 -6.9375 C 0 -7.914062 0.179688 -8.820312 0.546875 -9.65625 C 0.910156 -10.5 1.414062 -11.238281 2.0625 -11.875 C 2.707031 -12.507812 3.453125 -13.003906 4.296875 -13.359375 C 5.140625 -13.710938 6.039062 -13.890625 7 -13.890625 C 7.945312 -13.890625 8.875 -13.722656 9.78125 -13.390625 C 10.695312 -13.066406 11.492188 -12.609375 12.171875 -12.015625 Z M 12.171875 -12.015625 "/></g></g></g><g fill="#004276" fill-opacity="1"><g transform="translate(88.735338, 36.680562)"><g><path d="M 7.796875 -13.890625 L 12.265625 -1.140625 C 12.367188 -0.828125 12.515625 -0.582031 12.703125 -0.40625 C 12.890625 -0.226562 13.164062 -0.144531 13.53125 -0.15625 L 13.53125 0 L 9.4375 0 L 9.4375 -0.15625 C 9.789062 -0.144531 10.035156 -0.21875 10.171875 -0.375 C 10.316406 -0.539062 10.335938 -0.796875 10.234375 -1.140625 L 8.84375 -5.046875 C 8.5 -4.304688 8.035156 -3.84375 7.453125 -3.65625 C 6.867188 -3.476562 6.171875 -3.519531 5.359375 -3.78125 C 5.148438 -3.84375 4.90625 -3.921875 4.625 -4.015625 C 4.351562 -4.109375 4.070312 -4.171875 3.78125 -4.203125 C 3.488281 -4.242188 3.222656 -4.210938 2.984375 -4.109375 C 2.753906 -4.003906 2.582031 -3.789062 2.46875 -3.46875 L 2.046875 -2.328125 C 1.992188 -2.148438 1.96875 -1.984375 1.96875 -1.828125 C 1.96875 -1.679688 1.992188 -1.519531 2.046875 -1.34375 C 2.078125 -1.269531 2.101562 -1.191406 2.125 -1.109375 C 2.15625 -1.035156 2.175781 -0.960938 2.1875 -0.890625 C 2.300781 -0.597656 2.453125 -0.398438 2.640625 -0.296875 C 2.835938 -0.191406 3.101562 -0.144531 3.4375 -0.15625 L 3.4375 0 C 2.925781 0 2.34375 0 1.6875 0 C 1.03125 0 0.46875 0 0 0 L 0 -0.15625 C 0.320312 -0.144531 0.582031 -0.21875 0.78125 -0.375 C 0.988281 -0.539062 1.140625 -0.769531 1.234375 -1.0625 L 5.75 -13.890625 Z M 8.734375 -5.453125 L 5.953125 -13.359375 L 2.9375 -4.84375 C 3.289062 -5.3125 3.722656 -5.585938 4.234375 -5.671875 C 4.753906 -5.765625 5.347656 -5.691406 6.015625 -5.453125 C 6.316406 -5.359375 6.628906 -5.257812 6.953125 -5.15625 C 7.285156 -5.050781 7.601562 -5.003906 7.90625 -5.015625 C 8.207031 -5.035156 8.484375 -5.179688 8.734375 -5.453125 Z M 8.734375 -5.453125 "/></g></g></g><g fill="#004276" fill-opacity="1"><g transform="translate(102.882215, 36.680562)"><g><path d="M 6.8125 -2.859375 C 6.8125 -1.796875 6.921875 -1.078125 7.140625 -0.703125 C 7.359375 -0.335938 7.6875 -0.164062 8.125 -0.1875 L 8.125 0 L 3.59375 0 L 3.59375 -0.1875 C 4.019531 -0.164062 4.34375 -0.335938 4.5625 -0.703125 C 4.78125 -1.078125 4.890625 -1.796875 4.890625 -2.859375 L 4.890625 -13.515625 L 4.359375 -13.515625 C 3.816406 -13.515625 3.257812 -13.398438 2.6875 -13.171875 C 2.125 -12.941406 1.613281 -12.625 1.15625 -12.21875 C 0.707031 -11.8125 0.382812 -11.34375 0.1875 -10.8125 L 0 -10.8125 L 0.828125 -13.890625 L 10.859375 -13.890625 L 11.71875 -10.8125 L 11.53125 -10.8125 C 11.320312 -11.34375 10.988281 -11.8125 10.53125 -12.21875 C 10.070312 -12.625 9.5625 -12.941406 9 -13.171875 C 8.4375 -13.398438 7.878906 -13.515625 7.328125 -13.515625 L 6.8125 -13.515625 Z M 6.8125 -2.859375 "/></g></g></g><g fill="#004276" fill-opacity="1"><g transform="translate(115.182083, 36.680562)"><g><path d="M 4.53125 -13.890625 L 4.53125 -13.703125 C 4.09375 -13.722656 3.765625 -13.546875 3.546875 -13.171875 C 3.335938 -12.804688 3.234375 -12.082031 3.234375 -11 L 3.234375 -2.859375 C 3.234375 -1.796875 3.335938 -1.078125 3.546875 -0.703125 C 3.765625 -0.335938 4.09375 -0.164062 4.53125 -0.1875 L 4.53125 0 L 0 0 L 0 -0.1875 C 0.4375 -0.164062 0.757812 -0.335938 0.96875 -0.703125 C 1.1875 -1.078125 1.296875 -1.796875 1.296875 -2.859375 L 1.296875 -11 C 1.296875 -12.082031 1.1875 -12.804688 0.96875 -13.171875 C 0.757812 -13.546875 0.4375 -13.722656 0 -13.703125 L 0 -13.890625 Z M 4.53125 -13.890625 "/></g></g></g><g fill="#004276" fill-opacity="1"><g transform="translate(120.296883, 36.680562)"><g><path d="M 6.9375 -13.890625 C 5.976562 -13.890625 5.078125 -13.707031 4.234375 -13.34375 C 3.398438 -12.988281 2.664062 -12.492188 2.03125 -11.859375 C 1.394531 -11.222656 0.894531 -10.484375 0.53125 -9.640625 C 0.175781 -8.796875 0 -7.894531 0 -6.9375 C 0 -5.976562 0.175781 -5.078125 0.53125 -4.234375 C 0.894531 -3.398438 1.394531 -2.664062 2.03125 -2.03125 C 2.664062 -1.394531 3.398438 -0.894531 4.234375 -0.53125 C 5.078125 -0.175781 5.976562 0 6.9375 0 C 7.894531 0 8.796875 -0.175781 9.640625 -0.53125 C 10.484375 -0.894531 11.222656 -1.394531 11.859375 -2.03125 C 12.492188 -2.664062 12.988281 -3.398438 13.34375 -4.234375 C 13.707031 -5.078125 13.890625 -5.976562 13.890625 -6.9375 C 13.890625 -7.894531 13.707031 -8.796875 13.34375 -9.640625 C 12.988281 -10.484375 12.492188 -11.222656 11.859375 -11.859375 C 11.222656 -12.492188 10.484375 -12.988281 9.640625 -13.34375 C 8.796875 -13.707031 7.894531 -13.890625 6.9375 -13.890625 Z M 4.703125 -13.109375 C 5.359375 -13.335938 6.023438 -13.394531 6.703125 -13.28125 C 7.378906 -13.164062 8.035156 -12.898438 8.671875 -12.484375 C 9.304688 -12.078125 9.878906 -11.546875 10.390625 -10.890625 C 10.898438 -10.234375 11.3125 -9.476562 11.625 -8.625 C 11.9375 -7.769531 12.101562 -6.925781 12.125 -6.09375 C 12.15625 -5.257812 12.054688 -4.476562 11.828125 -3.75 C 11.597656 -3.03125 11.257812 -2.40625 10.8125 -1.875 C 10.363281 -1.351562 9.816406 -0.976562 9.171875 -0.75 C 8.523438 -0.519531 7.859375 -0.460938 7.171875 -0.578125 C 6.492188 -0.691406 5.835938 -0.953125 5.203125 -1.359375 C 4.578125 -1.773438 4.003906 -2.3125 3.484375 -2.96875 C 2.972656 -3.625 2.5625 -4.378906 2.25 -5.234375 C 1.9375 -6.085938 1.765625 -6.929688 1.734375 -7.765625 C 1.710938 -8.609375 1.8125 -9.390625 2.03125 -10.109375 C 2.257812 -10.828125 2.597656 -11.445312 3.046875 -11.96875 C 3.503906 -12.5 4.054688 -12.878906 4.703125 -13.109375 Z M 4.703125 -13.109375 "/></g></g></g><g fill="#004276" fill-opacity="1"><g transform="translate(134.8091, 36.680562)"><g><path d="M 11 -11 L 11 0 L 10.34375 0 C 9.914062 -1.664062 9.25 -3.242188 8.34375 -4.734375 C 7.4375 -6.234375 6.40625 -7.648438 5.25 -8.984375 C 4.09375 -10.328125 2.898438 -11.570312 1.671875 -12.71875 L 1.671875 -2.859375 C 1.671875 -1.796875 1.773438 -1.078125 1.984375 -0.703125 C 2.203125 -0.335938 2.53125 -0.164062 2.96875 -0.1875 L 2.96875 0 L 0 0 L 0 -0.1875 C 0.4375 -0.164062 0.757812 -0.335938 0.96875 -0.703125 C 1.1875 -1.078125 1.296875 -1.796875 1.296875 -2.859375 L 1.296875 -11 C 1.296875 -12.082031 1.1875 -12.804688 0.96875 -13.171875 C 0.757812 -13.546875 0.4375 -13.722656 0 -13.703125 L 0 -13.890625 L 3 -13.890625 C 4 -12.941406 4.976562 -11.941406 5.9375 -10.890625 C 6.90625 -9.835938 7.796875 -8.753906 8.609375 -7.640625 C 9.429688 -6.535156 10.113281 -5.410156 10.65625 -4.265625 L 10.65625 -11 C 10.65625 -12.082031 10.546875 -12.804688 10.328125 -13.171875 C 10.109375 -13.546875 9.78125 -13.722656 9.34375 -13.703125 L 9.34375 -13.890625 L 12.3125 -13.890625 L 12.3125 -13.703125 C 11.875 -13.722656 11.546875 -13.546875 11.328125 -13.171875 C 11.109375 -12.804688 11 -12.082031 11 -11 Z M 11 -11 "/></g></g></g><g fill="#004276" fill-opacity="1"><g transform="translate(32.306037, 37.011396)"><g><path d="M 0 0 L 0 -0.28125 C 0.675781 -0.257812 1.179688 -0.535156 1.515625 -1.109375 C 1.859375 -1.679688 2.03125 -2.804688 2.03125 -4.484375 L 2.03125 -17.265625 C 2.03125 -18.960938 1.859375 -20.101562 1.515625 -20.6875 C 1.179688 -21.269531 0.675781 -21.539062 0 -21.5 L 0 -21.78125 L 16.40625 -21.78125 L 17.734375 -16.96875 L 17.453125 -16.96875 C 17.128906 -17.800781 16.609375 -18.535156 15.890625 -19.171875 C 15.171875 -19.804688 14.367188 -20.300781 13.484375 -20.65625 C 12.609375 -21.019531 11.734375 -21.203125 10.859375 -21.203125 L 5.0625 -21.203125 L 5.0625 -10.15625 C 5.613281 -11.363281 6.34375 -12.109375 7.25 -12.390625 C 8.164062 -12.679688 9.265625 -12.617188 10.546875 -12.203125 C 11.078125 -12.023438 11.609375 -11.847656 12.140625 -11.671875 C 12.679688 -11.492188 13.203125 -11.453125 13.703125 -11.546875 C 14.203125 -11.640625 14.65625 -11.992188 15.0625 -12.609375 L 15.3125 -12.484375 C 14.78125 -10.910156 14.03125 -9.914062 13.0625 -9.5 C 12.101562 -9.09375 10.921875 -9.117188 9.515625 -9.578125 C 9.003906 -9.753906 8.476562 -9.925781 7.9375 -10.09375 C 7.40625 -10.257812 6.894531 -10.304688 6.40625 -10.234375 C 5.914062 -10.160156 5.46875 -9.835938 5.0625 -9.265625 L 5.0625 -0.578125 L 10.671875 -0.578125 C 11.710938 -0.578125 12.75 -0.800781 13.78125 -1.25 C 14.820312 -1.707031 15.757812 -2.320312 16.59375 -3.09375 C 17.4375 -3.875 18.050781 -4.753906 18.4375 -5.734375 L 18.6875 -5.734375 L 16.875 0 Z M 0 0 "/></g></g></g></svg>